HIERARCHY
ROOT Hips
{
  OFFSET 0.000000 0.000000 0.000000
  CHANNELS 6 Xposition Yposition Zposition Xrotation Yrotation Zrotation
  JOINT Spine
  {
    OFFSET 0.762862 23.197727 -6.058858
    CHANNELS 3 Xrotation Yrotation Zrotation
    JOINT Chest
    {
      OFFSET 0.762862 23.197727 -6.058858
      CHANNELS 3 Xrotation Yrotation Zrotation
      JOINT Neck
      {
        OFFSET -0.270074 9.229822 -3.797407
        CHANNELS 3 Xrotation Yrotation Zrotation
        JOINT Head
        {
          OFFSET 0.225285 8.430608 -7.939136
          CHANNELS 3 Xrotation Yrotation Zrotation
          End Site
          {
            OFFSET 0.067585 2.529182 -2.381741
          }
        }
      }
      JOINT LeftShoulder
      {
        OFFSET 17.595006 0.044015 0.996102
        CHANNELS 3 Xrotation Yrotation Zrotation
        JOINT LeftArm
        {
          OFFSET 3.473531 -23.049457 3.982832
          CHANNELS 3 Xrotation Yrotation Zrotation
          JOINT LeftForeArm
          {
            OFFSET 3.218371 -22.980839 -10.241008
            CHANNELS 3 Xrotation Yrotation Zrotation
            JOINT LeftHand
            {
              OFFSET -0.008887 -5.924601 -2.989147
              CHANNELS 3 Xrotation Yrotation Zrotation
              End Site
              {
                OFFSET -0.002666 -1.777380 -0.896744
              }
            }
          }
        }
      }
      JOINT RightShoulder
      {
        OFFSET -17.595006 -0.044015 -0.996102
        CHANNELS 3 Xrotation Yrotation Zrotation
        JOINT RightArm
        {
          OFFSET -5.553442 -24.118242 6.751946
          CHANNELS 3 Xrotation Yrotation Zrotation
          JOINT RightForeArm
          {
            OFFSET -3.099014 -24.977112 -8.059516
            CHANNELS 3 Xrotation Yrotation Zrotation
            JOINT RightHand
            {
              OFFSET 0.298828 -5.701374 -2.573080
              CHANNELS 3 Xrotation Yrotation Zrotation
              End Site
              {
                OFFSET 0.089648 -1.710412 -0.771924
              }
            }
          }
        }
      }
    }
  }
  JOINT LeftUpLeg
  {
    OFFSET 11.990773 -0.614304 0.788698
    CHANNELS 3 Xrotation Yrotation Zrotation
    JOINT LeftLeg
    {
      OFFSET -5.144974 -41.347031 -0.530598
      CHANNELS 3 Xrotation Yrotation Zrotation
      JOINT LeftFoot
      {
        OFFSET 2.709190 -35.138144 18.775504
        CHANNELS 3 Xrotation Yrotation Zrotation
        End Site
        {
          OFFSET 0.812757 -10.541443 5.632651
        }
      }
    }
  }
  JOINT RightUpLeg
  {
    OFFSET -11.990773 0.614304 -0.788698
    CHANNELS 3 Xrotation Yrotation Zrotation
    JOINT RightLeg
    {
      OFFSET 0.284998 -37.357294 5.081156
      CHANNELS 3 Xrotation Yrotation Zrotation
      JOINT RightFoot
      {
        OFFSET 4.690763 -28.563407 28.545631
        CHANNELS 3 Xrotation Yrotation Zrotation
        End Site
        {
          OFFSET 1.407229 -8.569022 8.563689
        }
      }
    }
  }
}
MOTION
Frames: 7
Frame Time: 0.083333
0.000125 60.205699 -1.143111 0.358990 0.013591 0.100002 0.000000 0.000000 0.000000 -0.031469 0.057206 0.059150 -0.042153 -0.022427 -0.097917 5.000000 0.000000 0.000000 -0.119723 0.052535 0.389573 -0.694494 -0.107152 -0.618338 99.800382 -11.309356 1.675972 0.000000 0.000000 0.000000 0.372976 -0.211719 -0.042136 -1.095234 0.145712 -0.127724 95.293552 25.105453 -3.108874 0.000000 0.000000 0.000000 17.716893 0.534800 -15.460802 -28.950438 -1.544426 23.589691 0.000000 0.000000 0.000000 -0.754306 0.086404 0.633919 4.338405 -0.273578 -1.494997 0.000000 0.000000 0.000000
0.091267 60.292338 -2.150997 0.370270 0.013398 0.100766 0.000000 0.000000 0.000000 -0.038252 0.058591 0.061165 -0.042353 -0.022803 -0.099679 5.000000 0.000000 0.000000 -0.078671 0.061942 0.410595 -0.538934 -0.105236 -0.625183 99.830468 -10.376942 1.651331 0.000000 0.000000 0.000000 0.413792 -0.202030 0.003013 -1.036327 0.145674 -0.162049 94.750262 26.648225 -3.954159 0.000000 0.000000 0.000000 18.546191 0.631189 -16.090454 -30.201877 -1.831153 24.274856 0.000000 0.000000 0.000000 -0.686651 0.107286 0.762877 3.889108 -0.356302 -1.568539 0.000000 0.000000 0.000000
0.330848 60.352437 -3.437269 0.370709 0.013392 0.100801 0.000000 0.000000 0.000000 -0.038534 0.058644 0.061241 -0.042355 -0.022821 -0.099753 5.000000 0.000000 0.000000 -0.119838 0.216626 1.337510 -1.054579 -0.304132 -1.929468 99.745323 -6.449683 0.993253 0.000000 0.000000 0.000000 1.314694 -0.555581 0.121546 -2.783213 0.419003 -0.548873 94.322618 28.321676 -4.474494 0.000000 0.000000 0.000000 4.016485 0.127363 -15.208278 -10.128686 3.871154 26.325536 0.000000 0.000000 0.000000 -1.580791 0.359757 2.506853 16.177621 -1.404177 -5.837444 0.000000 0.000000 0.000000
0.843556 60.196587 -3.667344 1.221683 0.017152 0.228483 0.000000 0.000000 0.000000 -0.364367 0.167576 0.187576 -0.104835 -0.060788 -0.258952 5.000000 0.000000 0.000000 0.083390 0.431703 2.520833 -0.293058 -0.463298 -3.432704 99.403436 0.688629 0.021247 0.000000 0.000000 0.000000 2.273540 -0.795153 0.373401 -3.716278 0.634927 -0.952260 94.686401 27.548478 -4.049696 0.000000 0.000000 0.000000 -1.395909 0.265408 -17.871017 -2.921402 6.259110 31.045655 0.000000 0.000000 0.000000 -1.696712 0.623922 4.303577 22.054326 -2.537408 -9.080898 0.000000 0.000000 0.000000
1.271810 60.226070 -3.480084 2.150982 -0.017434 0.219728 0.000000 0.000000 0.000000 -1.084822 0.255570 0.321789 -0.107428 -0.081962 -0.343889 5.000000 0.000000 0.000000 0.499107 0.643857 3.761276 0.933392 -0.571673 -5.161950 97.945559 12.491144 -1.092224 0.000000 0.000000 0.000000 2.879373 -0.993690 0.322777 -4.100398 0.774076 -0.993369 94.328270 28.075241 -4.289396 0.000000 0.000000 0.000000 -2.970859 0.246125 -18.549505 -0.456212 7.012222 31.752377 0.000000 0.000000 0.000000 -1.588529 0.661705 4.641013 23.259989 -2.797596 -9.843917 0.000000 0.000000 0.000000
1.419264 60.736954 -3.725880 2.521678 -0.022544 0.252836 0.000000 0.000000 0.000000 -1.400870 0.309797 0.413646 -0.063226 -0.092003 -0.422307 5.000000 0.000000 0.000000 1.784436 0.898272 4.780929 2.996041 -0.685869 -6.804989 96.645062 21.260899 -0.955383 0.000000 0.000000 0.000000 3.399434 -1.178183 0.402856 -4.285168 0.886294 -1.119586 0.000000 0.000000 0.000000 0.000000 0.000000 0.000000 -4.553443 0.254533 -19.058286 0.815086 7.316444 32.012220 0.000000 0.000000 0.000000 -2.057778 0.720976 5.018087 23.250289 -3.070334 -10.504800 0.000000 0.000000 0.000000
1.331017 61.351791 -4.081870 3.479699 -0.037149 0.335918 0.000000 0.000000 0.000000 -2.150311 0.376253 0.450763 -0.040848 -0.091009 -0.478042 5.000000 0.000000 0.000000 3.322191 1.224871 6.304848 4.849278 -0.968023 -8.773954 96.223199 25.080490 -0.284828 0.000000 0.000000 0.000000 3.386753 -1.183997 0.688631 -3.860292 0.821707 -1.425628 0.000000 0.000000 0.000000 0.000000 0.000000 0.000000 -4.124737 0.315807 -18.795814 -2.010379 6.061556 30.883116 0.000000 0.000000 0.000000 -2.889018 0.833853 5.772834 21.544060 -3.682633 -11.481139 0.000000 0.000000 0.000000
